<?xml version="1.0" encoding="UTF-8" standalone="no"?>
<!DOCTYPE svg PUBLIC "-//W3C//DTD SVG 1.1//EN" "http://www.w3.org/Graphics/SVG/1.1/DTD/svg11.dtd">
<svg width="100%" height="100%" viewBox="0 0 2480 2480" version="1.1" xmlns="http://www.w3.org/2000/svg" xmlns:xlink="http://www.w3.org/1999/xlink" xml:space="preserve" style="fill-rule:evenodd;clip-rule:evenodd;stroke-linejoin:round;stroke-miterlimit:1.41421;">
    <g transform="matrix(0.861357,0,0,0.861357,-199.874,288.456)">
        <g transform="matrix(1,0,0,1,-804.503,293.049)">
            <path d="M2367.85,454.921C2367.85,462.921 2364.35,468.921 2357.35,472.921C2329.35,488.921 2298.35,507.421 2264.35,528.421C2230.35,549.421 2194.85,571.421 2157.85,594.421C2120.85,617.421 2083.35,641.171 2045.35,665.671C2007.35,690.171 1970.85,713.921 1935.85,736.921C1941.85,776.921 1948.1,816.671 1954.6,856.171C1961.1,895.671 1968.35,932.921 1976.35,967.921C1993.35,1045.92 2025.35,1084.92 2072.35,1084.92C2089.35,1084.92 2108.6,1079.92 2130.1,1069.92C2151.6,1059.92 2173.85,1045.92 2196.85,1027.92C2200.85,1023.92 2204.1,1024.17 2206.6,1028.67C2209.1,1033.17 2207.85,1036.42 2202.85,1038.42C2190.85,1047.42 2176.85,1057.17 2160.85,1067.67C2144.85,1078.17 2127.85,1087.67 2109.85,1096.17C2091.85,1104.67 2073.6,1111.92 2055.1,1117.92C2036.6,1123.92 2019.35,1126.92 2003.35,1126.92C1970.35,1126.92 1948.1,1113.67 1936.6,1087.17C1925.1,1060.67 1916.35,1023.42 1910.35,975.421C1906.35,946.421 1902.1,915.171 1897.6,881.671C1893.1,848.171 1888.35,813.921 1883.35,778.921C1821.35,819.921 1760.6,861.421 1701.1,903.421C1641.6,945.421 1583.85,990.421 1527.85,1038.42C1520.85,1044.42 1510.6,1054.17 1497.1,1067.67C1483.6,1081.17 1470.35,1095.92 1457.35,1111.92C1444.35,1127.92 1433.1,1144.17 1423.6,1160.67C1414.1,1177.17 1409.35,1190.92 1409.35,1201.92C1409.35,1207.92 1407.85,1211.42 1404.85,1212.42C1399.85,1207.42 1394.35,1200.67 1388.35,1192.17C1382.35,1183.67 1379.35,1175.92 1379.35,1168.92C1379.35,1156.92 1384.1,1143.92 1393.6,1129.92C1403.1,1115.92 1415.35,1101.42 1430.35,1086.42C1445.35,1071.42 1462.85,1056.17 1482.85,1040.67C1502.85,1025.17 1523.35,1009.92 1544.35,994.921C1599.35,955.921 1654.6,916.921 1710.1,877.921C1765.6,838.921 1822.35,800.421 1880.35,762.421C1875.35,729.421 1869.85,695.921 1863.85,661.921C1857.85,627.921 1850.85,594.921 1842.85,562.921C1834.85,528.921 1821.6,506.171 1803.1,494.671C1784.6,483.171 1762.85,477.421 1737.85,477.421C1717.85,477.421 1695.6,480.671 1671.1,487.171C1646.6,493.671 1624.35,503.921 1604.35,517.921C1596.35,521.921 1592.1,521.921 1591.6,517.921C1591.1,513.921 1593.35,510.421 1598.35,507.421C1630.35,490.421 1664.6,476.171 1701.1,464.671C1737.6,453.171 1774.85,447.421 1812.85,447.421C1847.85,447.421 1872.85,456.921 1887.85,475.921C1902.85,494.921 1912.85,526.921 1917.85,571.921C1919.85,592.921 1922.35,617.421 1925.35,645.421C1928.35,673.421 1931.35,698.921 1934.35,721.921C2067.35,631.921 2197.85,537.921 2325.85,439.921C2331.85,434.921 2334.85,430.421 2334.85,426.421C2334.85,421.421 2334.35,417.421 2333.35,414.421C2332.35,411.421 2334.35,409.921 2339.35,409.921C2344.35,409.921 2350.35,415.671 2357.35,427.171C2364.35,438.671 2367.85,447.921 2367.85,454.921Z" style="fill:rgb(79,91,147);fill-rule:nonzero;"/>
        </g>
        <g transform="matrix(1,0,0,1,1016.22,144.017)">
            <path d="M547.11,686.863L600.723,686.863L600.723,1096.14L486.758,1096.14C446.914,1096.14 415.127,1083.54 391.397,1058.35C367.666,1033.15 355.801,999.363 355.801,956.98C355.801,917.332 368.252,884.715 393.154,859.129C418.057,833.543 449.844,820.75 488.516,820.75C506.485,820.75 526.016,824.558 547.11,832.176L547.11,686.863ZM547.11,1050.44L547.11,879.637C530.508,871.238 513.711,867.039 496.719,867.039C470.156,867.039 449.014,875.73 433.291,893.113C417.569,910.496 409.707,933.933 409.707,963.426C409.707,991.16 416.543,1012.55 430.215,1027.59C438.418,1036.57 447.11,1042.62 456.289,1045.75C465.469,1048.88 481.973,1050.44 505.801,1050.44L547.11,1050.44Z" style="fill:rgb(51,51,51);fill-rule:nonzero;"/>
            <path d="M896.774,966.062L707.223,966.062C708.59,991.844 717.233,1012.35 733.151,1027.59C749.069,1042.82 769.625,1050.44 794.82,1050.44C829.977,1050.44 862.399,1039.5 892.086,1017.62L892.086,1069.77C875.68,1080.71 859.42,1088.52 843.307,1093.21C827.194,1097.9 808.297,1100.24 786.617,1100.24C756.93,1100.24 732.906,1094.09 714.547,1081.79C696.188,1069.48 681.49,1052.93 670.455,1032.13C659.42,1011.33 653.902,987.254 653.902,959.91C653.902,918.894 665.524,885.545 688.766,859.861C712.008,834.178 742.184,821.336 779.293,821.336C815.035,821.336 843.551,833.836 864.84,858.836C886.129,883.836 896.774,917.332 896.774,959.324L896.774,966.062ZM708.395,934.129L844.039,934.129C842.672,912.84 836.324,896.433 824.996,884.91C813.668,873.387 798.434,867.625 779.293,867.625C760.152,867.625 744.479,873.387 732.272,884.91C720.065,896.433 712.106,912.84 708.395,934.129Z" style="fill:rgb(51,51,51);fill-rule:nonzero;"/>
            <path d="M946.145,686.863L999.465,686.863L999.465,845.945C1022.51,829.148 1047.12,820.75 1073.29,820.75C1107.47,820.75 1135.4,833.64 1157.08,859.422C1178.76,885.203 1189.6,918.308 1189.6,958.738C1189.6,1002.1 1176.66,1036.62 1150.78,1062.3C1124.9,1087.99 1090.29,1100.83 1046.93,1100.83C1029.54,1100.83 1011.23,1098.97 991.994,1095.26C972.756,1091.55 957.473,1086.86 946.145,1081.2L946.145,686.863ZM999.465,896.922L999.465,1042.82C1017.63,1048.29 1036.28,1051.02 1055.42,1051.02C1079.06,1051.02 1098.34,1042.62 1113.28,1025.83C1128.23,1009.03 1135.69,987.449 1135.69,961.082C1135.69,934.324 1128.71,912.547 1114.75,895.75C1100.78,878.953 1082.57,870.555 1060.11,870.555C1040.19,870.555 1019.97,879.344 999.465,896.922Z" style="fill:rgb(51,51,51);fill-rule:nonzero;"/>
            <path d="M1414.17,1096.14L1414.17,1061.86C1402.84,1074.17 1389.9,1083.74 1375.35,1090.57C1360.8,1097.41 1346.3,1100.83 1331.84,1100.83C1314.85,1100.83 1299.18,1096.58 1284.82,1088.08C1270.47,1079.59 1259.63,1068.06 1252.3,1053.51C1244.98,1038.96 1241.32,1014.79 1241.32,981.004L1241.32,826.609L1294.64,826.609L1294.64,980.418C1294.64,1008.74 1298.69,1028.51 1306.8,1039.74C1314.9,1050.97 1329.11,1056.59 1349.42,1056.59C1374.81,1056.59 1396.39,1044.19 1414.17,1019.38L1414.17,826.609L1467.49,826.609L1467.49,1096.14L1414.17,1096.14Z" style="fill:rgb(51,51,51);fill-rule:nonzero;"/>
            <path d="M1522.72,919.773C1522.72,891.062 1533.22,868.357 1554.21,851.658C1575.21,834.959 1603.87,826.609 1640.2,826.609L1751.24,826.609L1751.24,868.211L1696.74,868.211C1707.29,878.953 1714.61,888.719 1718.72,897.508C1722.82,906.297 1724.87,916.355 1724.87,927.683C1724.87,941.746 1720.86,955.564 1712.86,969.139C1704.85,982.713 1694.55,993.113 1681.95,1000.34C1669.35,1007.57 1648.69,1013.33 1619.99,1017.62C1599.87,1020.56 1589.81,1027.49 1589.81,1038.43C1589.81,1044.68 1593.57,1049.8 1601.09,1053.81C1608.61,1057.81 1622.23,1061.96 1641.96,1066.26C1674.97,1073.48 1696.2,1079.15 1705.68,1083.25C1715.15,1087.35 1723.69,1093.21 1731.31,1100.83C1744.2,1113.72 1750.65,1129.93 1750.65,1149.46C1750.65,1175.05 1739.27,1195.46 1716.52,1210.69C1693.76,1225.93 1663.34,1233.54 1625.26,1233.54C1586.78,1233.54 1556.07,1225.88 1533.12,1210.55C1510.17,1195.21 1498.69,1174.66 1498.69,1148.88C1498.69,1112.35 1521.25,1088.82 1566.37,1078.27C1548.4,1066.75 1539.42,1055.32 1539.42,1043.99C1539.42,1035.4 1543.28,1027.59 1550.99,1020.56C1558.7,1013.52 1569.11,1008.35 1582.19,1005.03C1542.54,987.449 1522.72,959.031 1522.72,919.773ZM1622.91,872.898C1608.46,872.898 1596.16,877.781 1586,887.547C1575.84,897.312 1570.77,909.031 1570.77,922.703C1570.77,936.57 1575.75,948.045 1585.71,957.127C1595.67,966.209 1608.27,970.75 1623.5,970.75C1638.54,970.75 1651.09,966.111 1661.15,956.834C1671.2,947.557 1676.24,935.984 1676.24,922.117C1676.24,908.055 1671.16,896.336 1661,886.961C1650.84,877.586 1638.15,872.898 1622.91,872.898ZM1610.32,1108.74C1592.35,1108.74 1577.65,1112.55 1566.23,1120.16C1554.8,1127.78 1549.09,1137.55 1549.09,1149.46C1549.09,1177.19 1574.09,1191.06 1624.09,1191.06C1647.72,1191.06 1666.03,1187.6 1679.02,1180.66C1692.01,1173.73 1698.5,1163.91 1698.5,1151.22C1698.5,1138.72 1690.3,1128.51 1673.89,1120.6C1657.49,1112.69 1636.29,1108.74 1610.32,1108.74Z" style="fill:rgb(51,51,51);fill-rule:nonzero;"/>
        </g>
    </g>
</svg>
